<mxfile host="app.diagrams.net" agent="Mozilla/5.0 (Windows NT 10.0; Win64; x64) AppleWebKit/537.36 (KHTML, like Gecko) Chrome/135.0.0.0 Safari/537.36" version="27.0.6">
  <diagram id="C5RBs43oDa-KdzZeNtuy" name="Page-1">
    <mxGraphModel dx="898" dy="750" grid="1" gridSize="10" guides="1" tooltips="1" connect="1" arrows="1" fold="1" page="1" pageScale="1" pageWidth="827" pageHeight="1169" math="0" shadow="0">
      <root>
        <mxCell id="WIyWlLk6GJQsqaUBKTNV-0" />
        <mxCell id="WIyWlLk6GJQsqaUBKTNV-1" parent="WIyWlLk6GJQsqaUBKTNV-0" />
        <mxCell id="AlwbdDvRf-miLSY7LMRS-7" value="" style="rounded=1;whiteSpace=wrap;html=1;fillColor=#fff2cc;strokeColor=#d6b656;" parent="WIyWlLk6GJQsqaUBKTNV-1" vertex="1">
          <mxGeometry x="80" y="40" width="680" height="200" as="geometry" />
        </mxCell>
        <mxCell id="AlwbdDvRf-miLSY7LMRS-8" style="rounded=0;orthogonalLoop=1;jettySize=auto;html=1;entryX=0;entryY=0.5;entryDx=0;entryDy=0;endArrow=none;startFill=0;" parent="WIyWlLk6GJQsqaUBKTNV-1" source="AlwbdDvRf-miLSY7LMRS-5" target="AlwbdDvRf-miLSY7LMRS-6" edge="1">
          <mxGeometry relative="1" as="geometry" />
        </mxCell>
        <mxCell id="AlwbdDvRf-miLSY7LMRS-5" value="&lt;p style=&quot;margin:0px;margin-top:4px;text-align:center;&quot;&gt;&lt;b&gt;Ecrivain&lt;/b&gt;&lt;/p&gt;&lt;hr size=&quot;1&quot; style=&quot;border-style:solid;&quot;&gt;&lt;div style=&quot;height:2px;&quot;&gt;&lt;/div&gt;&lt;hr size=&quot;1&quot; style=&quot;border-style:solid;&quot;&gt;&lt;div style=&quot;height:2px;&quot;&gt;&lt;/div&gt;" style="verticalAlign=top;align=left;overflow=fill;html=1;whiteSpace=wrap;" parent="WIyWlLk6GJQsqaUBKTNV-1" vertex="1">
          <mxGeometry x="160" y="120" width="140" height="60" as="geometry" />
        </mxCell>
        <mxCell id="AlwbdDvRf-miLSY7LMRS-6" value="&lt;p style=&quot;margin:0px;margin-top:4px;text-align:center;&quot;&gt;&lt;b&gt;Oeuvre&lt;/b&gt;&lt;/p&gt;&lt;hr size=&quot;1&quot; style=&quot;border-style:solid;&quot;&gt;&lt;div style=&quot;height:2px;&quot;&gt;&lt;/div&gt;&lt;hr size=&quot;1&quot; style=&quot;border-style:solid;&quot;&gt;&lt;div style=&quot;height:2px;&quot;&gt;&lt;/div&gt;" style="verticalAlign=top;align=left;overflow=fill;html=1;whiteSpace=wrap;" parent="WIyWlLk6GJQsqaUBKTNV-1" vertex="1">
          <mxGeometry x="480" y="120" width="140" height="60" as="geometry" />
        </mxCell>
        <mxCell id="AlwbdDvRf-miLSY7LMRS-9" value="&lt;font style=&quot;font-size: 16px;&quot;&gt;1..*&lt;/font&gt;" style="text;html=1;align=center;verticalAlign=middle;whiteSpace=wrap;rounded=0;" parent="WIyWlLk6GJQsqaUBKTNV-1" vertex="1">
          <mxGeometry x="430" y="120" width="60" height="30" as="geometry" />
        </mxCell>
        <mxCell id="AlwbdDvRf-miLSY7LMRS-10" value="&lt;font style=&quot;font-size: 21px; color: light-dark(rgb(5, 5, 5), rgb(237, 237, 237));&quot;&gt;&lt;b&gt;A&lt;/b&gt;&lt;/font&gt;" style="shape=tape;whiteSpace=wrap;html=1;" parent="WIyWlLk6GJQsqaUBKTNV-1" vertex="1">
          <mxGeometry x="90" y="40" width="60" height="60" as="geometry" />
        </mxCell>
        <mxCell id="AlwbdDvRf-miLSY7LMRS-11" value="" style="rounded=1;whiteSpace=wrap;html=1;fillColor=#ffe6cc;strokeColor=#d79b00;" parent="WIyWlLk6GJQsqaUBKTNV-1" vertex="1">
          <mxGeometry x="80" y="281" width="680" height="319" as="geometry" />
        </mxCell>
        <mxCell id="AlwbdDvRf-miLSY7LMRS-12" value="&lt;font style=&quot;font-size: 21px; color: light-dark(rgb(5, 5, 5), rgb(237, 237, 237));&quot;&gt;&lt;b&gt;B&lt;/b&gt;&lt;/font&gt;" style="shape=tape;whiteSpace=wrap;html=1;" parent="WIyWlLk6GJQsqaUBKTNV-1" vertex="1">
          <mxGeometry x="90" y="281" width="60" height="60" as="geometry" />
        </mxCell>
        <mxCell id="AlwbdDvRf-miLSY7LMRS-15" style="rounded=0;orthogonalLoop=1;jettySize=auto;html=1;entryX=0.086;entryY=0.083;entryDx=0;entryDy=0;exitX=0.086;exitY=0.983;exitDx=0;exitDy=0;exitPerimeter=0;entryPerimeter=0;endArrow=none;startFill=0;" parent="WIyWlLk6GJQsqaUBKTNV-1" source="AlwbdDvRf-miLSY7LMRS-13" target="AlwbdDvRf-miLSY7LMRS-14" edge="1">
          <mxGeometry relative="1" as="geometry" />
        </mxCell>
        <mxCell id="AlwbdDvRf-miLSY7LMRS-16" style="rounded=0;orthogonalLoop=1;jettySize=auto;html=1;entryX=0.907;entryY=0.017;entryDx=0;entryDy=0;exitX=0.914;exitY=1.017;exitDx=0;exitDy=0;exitPerimeter=0;entryPerimeter=0;endArrow=none;startFill=0;" parent="WIyWlLk6GJQsqaUBKTNV-1" source="AlwbdDvRf-miLSY7LMRS-13" target="AlwbdDvRf-miLSY7LMRS-14" edge="1">
          <mxGeometry relative="1" as="geometry" />
        </mxCell>
        <mxCell id="AlwbdDvRf-miLSY7LMRS-13" value="&lt;p style=&quot;margin:0px;margin-top:4px;text-align:center;&quot;&gt;&lt;b&gt;Personne&lt;/b&gt;&lt;/p&gt;&lt;hr size=&quot;1&quot; style=&quot;border-style:solid;&quot;&gt;&lt;div style=&quot;height:2px;&quot;&gt;&lt;/div&gt;&lt;hr size=&quot;1&quot; style=&quot;border-style:solid;&quot;&gt;&lt;div style=&quot;height:2px;&quot;&gt;&lt;/div&gt;" style="verticalAlign=top;align=left;overflow=fill;html=1;whiteSpace=wrap;" parent="WIyWlLk6GJQsqaUBKTNV-1" vertex="1">
          <mxGeometry x="320" y="321" width="140" height="60" as="geometry" />
        </mxCell>
        <mxCell id="AlwbdDvRf-miLSY7LMRS-14" value="&lt;p style=&quot;margin:0px;margin-top:4px;text-align:center;&quot;&gt;&lt;b&gt;Universite&lt;/b&gt;&lt;/p&gt;&lt;hr size=&quot;1&quot; style=&quot;border-style:solid;&quot;&gt;&lt;div style=&quot;height:2px;&quot;&gt;&lt;/div&gt;&lt;hr size=&quot;1&quot; style=&quot;border-style:solid;&quot;&gt;&lt;div style=&quot;height:2px;&quot;&gt;&lt;/div&gt;" style="verticalAlign=top;align=left;overflow=fill;html=1;whiteSpace=wrap;" parent="WIyWlLk6GJQsqaUBKTNV-1" vertex="1">
          <mxGeometry x="320" y="510" width="140" height="60" as="geometry" />
        </mxCell>
        <mxCell id="AlwbdDvRf-miLSY7LMRS-17" value="&lt;font style=&quot;font-size: 16px;&quot;&gt;0..*&lt;/font&gt;" style="text;html=1;align=center;verticalAlign=middle;whiteSpace=wrap;rounded=0;" parent="WIyWlLk6GJQsqaUBKTNV-1" vertex="1">
          <mxGeometry x="320" y="480" width="60" height="30" as="geometry" />
        </mxCell>
        <mxCell id="AlwbdDvRf-miLSY7LMRS-18" value="&lt;font style=&quot;font-size: 16px;&quot;&gt;0..*&lt;/font&gt;" style="text;html=1;align=center;verticalAlign=middle;whiteSpace=wrap;rounded=0;" parent="WIyWlLk6GJQsqaUBKTNV-1" vertex="1">
          <mxGeometry x="440" y="480" width="60" height="30" as="geometry" />
        </mxCell>
        <mxCell id="AlwbdDvRf-miLSY7LMRS-19" value="etudiant" style="text;html=1;align=left;verticalAlign=middle;whiteSpace=wrap;rounded=0;" parent="WIyWlLk6GJQsqaUBKTNV-1" vertex="1">
          <mxGeometry x="330" y="460" width="60" height="30" as="geometry" />
        </mxCell>
        <mxCell id="AlwbdDvRf-miLSY7LMRS-20" value="professeur" style="text;html=1;align=left;verticalAlign=middle;whiteSpace=wrap;rounded=0;" parent="WIyWlLk6GJQsqaUBKTNV-1" vertex="1">
          <mxGeometry x="450" y="460" width="60" height="30" as="geometry" />
        </mxCell>
        <mxCell id="AlwbdDvRf-miLSY7LMRS-21" value="" style="rounded=1;whiteSpace=wrap;html=1;fillColor=#f8cecc;strokeColor=#b85450;" parent="WIyWlLk6GJQsqaUBKTNV-1" vertex="1">
          <mxGeometry x="80" y="640" width="680" height="300" as="geometry" />
        </mxCell>
        <mxCell id="AlwbdDvRf-miLSY7LMRS-22" value="&lt;font style=&quot;font-size: 21px; color: light-dark(rgb(5, 5, 5), rgb(237, 237, 237));&quot;&gt;&lt;b&gt;C&lt;/b&gt;&lt;/font&gt;" style="shape=tape;whiteSpace=wrap;html=1;" parent="WIyWlLk6GJQsqaUBKTNV-1" vertex="1">
          <mxGeometry x="90" y="640" width="60" height="60" as="geometry" />
        </mxCell>
        <mxCell id="aIosQc4VRswI6tBACXog-5" style="rounded=0;orthogonalLoop=1;jettySize=auto;html=1;entryX=0.5;entryY=0;entryDx=0;entryDy=0;endArrow=none;startFill=0;" edge="1" parent="WIyWlLk6GJQsqaUBKTNV-1" source="aIosQc4VRswI6tBACXog-0" target="aIosQc4VRswI6tBACXog-1">
          <mxGeometry relative="1" as="geometry" />
        </mxCell>
        <mxCell id="aIosQc4VRswI6tBACXog-6" style="rounded=0;orthogonalLoop=1;jettySize=auto;html=1;entryX=0.5;entryY=0;entryDx=0;entryDy=0;endArrow=none;startFill=0;" edge="1" parent="WIyWlLk6GJQsqaUBKTNV-1" source="aIosQc4VRswI6tBACXog-0" target="aIosQc4VRswI6tBACXog-2">
          <mxGeometry relative="1" as="geometry" />
        </mxCell>
        <mxCell id="aIosQc4VRswI6tBACXog-0" value="&lt;p style=&quot;margin:0px;margin-top:4px;text-align:center;&quot;&gt;&lt;b&gt;Raccourci&lt;/b&gt;&lt;/p&gt;&lt;hr size=&quot;1&quot; style=&quot;border-style:solid;&quot;&gt;&lt;div style=&quot;height:2px;&quot;&gt;&lt;/div&gt;&lt;hr size=&quot;1&quot; style=&quot;border-style:solid;&quot;&gt;&lt;div style=&quot;height:2px;&quot;&gt;&lt;/div&gt;" style="verticalAlign=top;align=left;overflow=fill;html=1;whiteSpace=wrap;" vertex="1" parent="WIyWlLk6GJQsqaUBKTNV-1">
          <mxGeometry x="320" y="660" width="140" height="60" as="geometry" />
        </mxCell>
        <mxCell id="aIosQc4VRswI6tBACXog-1" value="&lt;p style=&quot;margin:0px;margin-top:4px;text-align:center;&quot;&gt;&lt;b&gt;Fichier&lt;/b&gt;&lt;/p&gt;&lt;hr size=&quot;1&quot; style=&quot;border-style:solid;&quot;&gt;&lt;div style=&quot;height:2px;&quot;&gt;&lt;/div&gt;&lt;hr size=&quot;1&quot; style=&quot;border-style:solid;&quot;&gt;&lt;div style=&quot;height:2px;&quot;&gt;&lt;/div&gt;" style="verticalAlign=top;align=left;overflow=fill;html=1;whiteSpace=wrap;" vertex="1" parent="WIyWlLk6GJQsqaUBKTNV-1">
          <mxGeometry x="200" y="830" width="140" height="60" as="geometry" />
        </mxCell>
        <mxCell id="aIosQc4VRswI6tBACXog-2" value="&lt;p style=&quot;margin:0px;margin-top:4px;text-align:center;&quot;&gt;&lt;b&gt;Repertoire&lt;/b&gt;&lt;/p&gt;&lt;hr size=&quot;1&quot; style=&quot;border-style:solid;&quot;&gt;&lt;div style=&quot;height:2px;&quot;&gt;&lt;/div&gt;&lt;hr size=&quot;1&quot; style=&quot;border-style:solid;&quot;&gt;&lt;div style=&quot;height:2px;&quot;&gt;&lt;/div&gt;" style="verticalAlign=top;align=left;overflow=fill;html=1;whiteSpace=wrap;" vertex="1" parent="WIyWlLk6GJQsqaUBKTNV-1">
          <mxGeometry x="440" y="830" width="140" height="60" as="geometry" />
        </mxCell>
        <mxCell id="aIosQc4VRswI6tBACXog-7" value="&lt;font style=&quot;font-size: 16px;&quot;&gt;0..1&lt;/font&gt;" style="text;html=1;align=center;verticalAlign=middle;whiteSpace=wrap;rounded=0;" vertex="1" parent="WIyWlLk6GJQsqaUBKTNV-1">
          <mxGeometry x="280" y="800" width="60" height="30" as="geometry" />
        </mxCell>
        <mxCell id="aIosQc4VRswI6tBACXog-8" value="&lt;font style=&quot;font-size: 16px;&quot;&gt;0..1&lt;/font&gt;" style="text;html=1;align=center;verticalAlign=middle;whiteSpace=wrap;rounded=0;" vertex="1" parent="WIyWlLk6GJQsqaUBKTNV-1">
          <mxGeometry x="510" y="800" width="60" height="30" as="geometry" />
        </mxCell>
        <mxCell id="aIosQc4VRswI6tBACXog-9" value="" style="line;strokeWidth=1;fillColor=none;align=left;verticalAlign=middle;spacingTop=-1;spacingLeft=3;spacingRight=3;rotatable=0;labelPosition=right;points=[];portConstraint=eastwest;strokeColor=inherit;dashed=1;dashPattern=8 8;" vertex="1" parent="WIyWlLk6GJQsqaUBKTNV-1">
          <mxGeometry x="320" y="770" width="140" height="8" as="geometry" />
        </mxCell>
        <mxCell id="aIosQc4VRswI6tBACXog-10" value="{xor}" style="text;html=1;align=center;verticalAlign=middle;whiteSpace=wrap;rounded=0;" vertex="1" parent="WIyWlLk6GJQsqaUBKTNV-1">
          <mxGeometry x="360" y="748" width="60" height="30" as="geometry" />
        </mxCell>
      </root>
    </mxGraphModel>
  </diagram>
</mxfile>
